<svg width="83" height="56" viewBox="0 0 83 56" fill="none" xmlns="http://www.w3.org/2000/svg">
<path d="M82.1584 50.5488H78.6449V3.17094C78.6449 1.64263 77.5115 0.39502 76.1231 0.39502H6.90198C5.51359 0.39502 4.38021 1.64263 4.38021 3.17094V50.5488H0.838396C0.640055 50.5488 0.498383 50.7047 0.498383 50.9231V52.6385C0.498383 53.5118 0.9234 54.3852 1.71677 55.0402C2.42513 55.6328 3.3035 55.9759 4.1252 55.9759H78.9282C79.7499 55.9759 80.6283 55.6328 81.3367 55.0402C82.1017 54.3852 82.5551 53.543 82.5551 52.6385V50.9231C82.4984 50.7047 82.3567 50.5488 82.1584 50.5488ZM6.90198 1.14358H76.1231C76.6331 1.14358 77.0865 1.36191 77.4265 1.7362C77.7665 2.11048 77.9649 2.60952 77.9649 3.17094V50.5488H5.06024V3.17094C5.06024 2.60952 5.25858 2.11048 5.59859 1.7362C5.91027 1.3931 6.39196 1.14358 6.90198 1.14358ZM4.72022 51.2973H78.3049H81.8184V52.2642H1.17841V51.2973H4.72022ZM81.7617 53.0128C81.6483 53.543 81.3083 54.0421 80.8267 54.4475C80.26 54.9154 79.5233 55.2273 78.8716 55.2273H4.06853C3.41683 55.2273 2.68014 54.9154 2.11345 54.4475C1.6601 54.0733 1.29175 53.5742 1.17841 53.0128H81.7617Z" fill="#414042"/>
<path d="M8.46025 47.7723H74.5079C74.7063 47.7723 74.848 47.6164 74.848 47.398V5.32252C74.848 5.10419 74.7063 4.94824 74.5079 4.94824H8.46025C8.26191 4.94824 8.12024 5.10419 8.12024 5.32252V47.398C8.12024 47.6164 8.29025 47.7723 8.46025 47.7723ZM8.8286 47.0238V5.69681H74.1963V47.0238H8.8286Z" fill="#414042"/>
</svg>
