<svg width="28" height="58" viewBox="0 0 28 58" fill="none" xmlns="http://www.w3.org/2000/svg">
<path d="M24.5873 0.580566H3.40943C1.80836 0.580566 0.498383 2.0399 0.498383 3.82352V54.0083C0.498383 55.7919 1.80836 57.2512 3.40943 57.2512H24.5873C26.1884 57.2512 27.4984 55.7919 27.4984 54.0083V3.82352C27.4984 2.0399 26.1884 0.580566 24.5873 0.580566ZM24.5873 56.2783H3.40943C2.86361 56.2783 2.35418 56.0351 1.9903 55.6297C1.62641 55.2244 1.40809 54.6569 1.40809 54.0488V3.82352C1.40809 3.21547 1.62641 2.64795 1.9903 2.24258C2.35418 1.83721 2.86361 1.59399 3.40943 1.59399H24.5873C25.1332 1.59399 25.6426 1.83721 26.0065 2.24258C26.3703 2.64795 26.5887 3.21547 26.5887 3.82352V54.0083C26.5887 54.6163 26.3703 55.1838 26.0065 55.5892C25.6426 56.0351 25.1332 56.2783 24.5873 56.2783Z" fill="#414042"/>
<path d="M15.9632 51.7385H12.0332C11.3419 51.7385 10.7961 52.3465 10.7961 53.1167C10.7961 53.8869 11.3419 54.495 12.0332 54.495H15.9632C16.6545 54.495 17.2004 53.8869 17.2004 53.1167C17.2004 52.3871 16.6545 51.7385 15.9632 51.7385ZM15.9632 53.5626H12.0332C11.8513 53.5626 11.6694 53.4005 11.6694 53.1573C11.6694 52.9546 11.8149 52.7519 12.0332 52.7519H15.9632C16.1451 52.7519 16.3271 52.914 16.3271 53.1573C16.3271 53.3599 16.1451 53.5626 15.9632 53.5626Z" fill="#414042"/>
<path d="M25.0604 5.12029H2.93641C2.6817 5.12029 2.49976 5.32297 2.49976 5.60673V50.1569C2.49976 50.4406 2.6817 50.6433 2.93641 50.6433H25.024C25.2787 50.6433 25.4607 50.4406 25.4607 50.1569V5.60673C25.4971 5.32297 25.2787 5.12029 25.0604 5.12029ZM24.6237 6.09317V49.6299H3.40946V6.09317H24.6237Z" fill="#414042"/>
</svg>