<svg width="17" height="19" viewBox="0 0 17 19" fill="none" xmlns="http://www.w3.org/2000/svg">
<path d="M8.5 6.2124C6.66305 6.2124 5.17391 7.72344 5.17391 9.5874C5.17391 11.4514 6.66305 12.9624 8.5 12.9624C9.49695 12.9624 10.3915 12.5173 11.0011 11.8123C11.5147 11.2183 11.8261 10.4398 11.8261 9.5874C11.8261 9.24244 11.7751 8.90957 11.6803 8.59613C11.263 7.21591 9.99699 6.2124 8.5 6.2124ZM6.28261 9.5874C6.28261 8.34476 7.27537 7.3374 8.5 7.3374C9.72463 7.3374 10.7174 8.34476 10.7174 9.5874C10.7174 10.83 9.72463 11.8374 8.5 11.8374C7.27537 11.8374 6.28261 10.83 6.28261 9.5874Z" fill="#212121"/>
<path d="M14.1982 15.8834L12.9213 15.3147C12.556 15.1522 12.127 15.176 11.7817 15.3788C11.4365 15.5816 11.2163 15.9393 11.1724 16.3423L11.0189 17.7515C10.9873 18.0421 10.7795 18.2812 10.4997 18.3488C9.18463 18.6669 7.81446 18.6669 6.49936 18.3488C6.2196 18.2812 6.01181 18.0421 5.98016 17.7515L5.82688 16.3444C5.78186 15.9422 5.55176 15.5856 5.20682 15.3834C4.86188 15.1813 4.44304 15.1576 4.07896 15.3192L2.80183 15.888C2.5373 16.0059 2.22843 15.9412 2.03118 15.7268C1.1122 14.7276 0.428134 13.5295 0.0304634 12.2226C-0.0551901 11.9411 0.0437745 11.6354 0.2771 11.4606L1.40597 10.6151C1.7275 10.3749 1.91741 9.99349 1.91741 9.58785C1.91741 9.1822 1.7275 8.80077 1.40555 8.56027L0.277387 7.7162C0.0437149 7.54137 -0.0553408 7.23522 0.0306147 6.9535C0.428974 5.64786 1.1134 4.45108 2.0324 3.45321C2.22984 3.23882 2.53886 3.17442 2.80334 3.29254L4.0748 3.86039C4.44064 4.02362 4.86123 3.99896 5.20804 3.79297C5.55335 3.58934 5.78323 3.23131 5.82761 2.82831L5.98203 1.41999C6.01428 1.12588 6.22683 0.885133 6.51096 0.820888C7.1622 0.673636 7.82669 0.59539 8.50967 0.587402C9.17607 0.595211 9.83987 0.673491 10.4903 0.820977C10.7743 0.885359 10.9866 1.12603 11.0189 1.41999L11.1734 2.82938C11.2434 3.47651 11.7808 3.96665 12.4215 3.96733C12.5937 3.96761 12.764 3.93114 12.9232 3.85956L14.1948 3.29162C14.4593 3.17349 14.7683 3.23789 14.9658 3.45229C15.8848 4.45016 16.5692 5.64694 16.9676 6.95257C17.0535 7.23411 16.9546 7.54007 16.7212 7.71496L15.594 8.55966C15.2725 8.79984 15.0783 9.18128 15.0783 9.58692C15.0783 9.99257 15.2725 10.374 15.5947 10.6147L16.7229 11.4597C16.9564 11.6346 17.0553 11.9406 16.9694 12.2222C16.5712 13.5276 15.8871 14.7243 14.9687 15.7223C14.7714 15.9367 14.4626 16.0012 14.1982 15.8834ZM10.1727 15.7348C10.3465 15.1887 10.7092 14.709 11.2262 14.4052C11.8779 14.0223 12.6787 13.9784 13.3665 14.2844L14.3599 14.7268C14.9977 13.9777 15.4917 13.1133 15.816 12.1787L14.9375 11.5207L14.9368 11.5202C14.3377 11.0723 13.9696 10.3581 13.9696 9.58692C13.9696 8.81629 14.3372 8.10199 14.9358 7.65439L14.9368 7.65368L15.8142 6.99612C15.4898 6.06146 14.9956 5.19713 14.3575 4.44813L13.3725 4.88804L13.3708 4.88881C13.0711 5.02333 12.7479 5.09277 12.4203 5.09233C11.2137 5.09075 10.2034 4.16809 10.0715 2.95335L10.0713 2.95204L9.95127 1.85714C9.47582 1.76732 8.99352 1.7189 8.50963 1.71249C8.01138 1.71904 7.52591 1.76761 7.04962 1.85732L6.92945 2.95325C6.84618 3.7094 6.41514 4.38167 5.76663 4.76475C5.11432 5.15156 4.31987 5.19868 3.62816 4.89006L2.64071 4.44906C2.00267 5.19799 1.5085 6.06223 1.18406 6.99681L2.06351 7.6548C2.66911 8.10751 3.0261 8.82513 3.0261 9.58785C3.0261 10.3503 2.66931 11.068 2.06393 11.5206L1.1838 12.1798C1.50784 13.1157 2.00193 13.9812 2.64021 14.7314L3.63462 14.2885C4.32203 13.9833 5.11163 14.0285 5.76131 14.4092C6.4112 14.7901 6.84386 15.4613 6.92849 16.2174L6.92887 16.2208L7.04849 17.3189C8.0067 17.5102 8.9924 17.5102 9.95061 17.3189L10.0705 16.2187C10.0884 16.0536 10.1228 15.8915 10.1727 15.7348Z" fill="#212121"/>
</svg>
